<?xml version="1.0" encoding="UTF-8" standalone="no"?>
<!-- Created with Inkscape (http://www.inkscape.org/) -->

<svg
   width="8.4666662mm"
   height="8.4666739mm"
   viewBox="0 0 8.4666665 8.466674"
   version="1.1"
   id="svg5"
   xml:space="preserve"
   sodipodi:docname="shroomleaf.svg"
   inkscape:version="1.2.1 (9c6d41e410, 2022-07-14)"
   xmlns:inkscape="http://www.inkscape.org/namespaces/inkscape"
   xmlns:sodipodi="http://sodipodi.sourceforge.net/DTD/sodipodi-0.dtd"
   xmlns="http://www.w3.org/2000/svg"
   xmlns:svg="http://www.w3.org/2000/svg"><sodipodi:namedview
     id="namedview7"
     pagecolor="#505050"
     bordercolor="#eeeeee"
     borderopacity="1"
     inkscape:showpageshadow="0"
     inkscape:pageopacity="0"
     inkscape:pagecheckerboard="0"
     inkscape:deskcolor="#505050"
     inkscape:document-units="mm"
     showgrid="false"
     inkscape:zoom="0.55244701"
     inkscape:cx="-160.19636"
     inkscape:cy="229.8863"
     inkscape:window-width="1858"
     inkscape:window-height="1057"
     inkscape:window-x="1974"
     inkscape:window-y="-8"
     inkscape:window-maximized="1"
     inkscape:current-layer="layer1" /><defs
     id="defs2" /><g
     inkscape:label="Layer 1"
     inkscape:groupmode="layer"
     id="layer1"><path
       style="fill:#000000;stroke-width:0.0087913"
       d="M 3.6805738,8.4409072 C 3.5886904,8.4075502 3.5344066,8.3707907 3.4707052,8.2987902 3.4149685,8.2357922 3.3743468,8.1570097 3.3526047,8.0697437 c -0.01538,-0.061732 -0.012606,-0.1933865 0.0096,-0.4557755 0.00675,-0.079745 0.014866,-0.1842446 0.018035,-0.2322216 l 0.00576,-0.087231 h 0.8482895 0.8482894 l 0.015505,0.2303805 c 0.00852,0.1267096 0.01909,0.2766806 0.023475,0.3332691 0.00956,0.123337 0.0015,0.1952005 -0.03192,0.2839055 -0.050054,0.1329505 -0.1477939,0.2345725 -0.2813427,0.292518 l -0.063349,0.027485 -0.496712,0.0023 -0.4967123,0.0023 z M 2.7667436,7.0380776 C 2.5937272,7.0150806 2.4040454,6.9101081 2.2993606,6.7794216 2.1813185,6.6320596 2.128028,6.4718716 2.1294668,6.2687296 2.1325818,5.8287166 2.2608896,5.4111486 2.5080524,5.0366386 2.6001275,4.8971234 2.7999035,4.6806806 2.9438322,4.5645037 3.2019874,4.3561247 3.5214569,4.2095835 3.8595098,4.1444809 3.8903923,4.1385336 3.9172211,4.1323053 3.9191291,4.1306399 3.9335796,4.1180273 3.6968727,3.8056207 3.5200706,3.6039607 L 3.4730136,3.5502876 3.422225,3.5914206 C 3.1885925,3.780636 2.9244337,3.9011717 2.6266089,3.954461 2.5081187,3.9756622 2.1873225,3.9756406 2.0687213,3.9544272 1.8997971,3.9242056 1.7286194,3.8663016 1.5832732,3.790213 1.229234,3.6048724 0.92989652,3.3574427 0.70502776,3.0642614 0.58269041,2.9047597 0.48198351,2.7371295 0.39454696,2.5474555 0.18783713,2.0990446 0.07003768,1.5675211 0.02392506,0.87517412 0.01519593,0.74410956 -0.00426666,0.01128946 8.4132545e-4,0.00599921 0.00225831,0.00453199 0.07899829,0.02297715 0.17137534,0.04698833 0.72407606,0.19064945 1.2474572,0.29390743 1.7128502,0.35110612 c 0.1587889,0.0195158 0.3092395,0.0291241 0.5658198,0.0361352 0.2106378,0.005756 0.2851273,0.0111715 0.3714542,0.0270069 0.7147498,0.13111009 1.2718059,0.70624508 1.4009702,1.44643838 0.017364,0.099507 0.020012,0.1431862 0.019719,0.3251964 -3.265e-4,0.1941541 -0.00215,0.219154 -0.024011,0.3265587 C 4.0078774,2.7036979 3.9220756,2.946765 3.8624191,3.0347797 3.8611441,3.0366632 3.7579246,2.9357171 3.6330448,2.8104568 3.3625895,2.5391787 3.3099006,2.4884173 3.1286968,2.3245585 2.7531646,1.9849729 2.2090902,1.5491448 2.1451966,1.5367305 2.0450116,1.5172648 1.9676299,1.6375353 2.0235095,1.7258624 c 0.00738,0.011668 0.08239,0.074589 0.1666854,0.1398236 0.865962,0.6701535 1.6683174,1.4687288 2.0008976,1.9914704 l 0.041558,0.06532 0.059866,-0.091401 C 4.5456382,3.4446216 5.0433356,2.912488 5.6435086,2.3866085 5.7386171,2.3032735 5.8409911,2.2149598 5.8710071,2.1903562 5.9010221,2.1657523 5.9573196,2.1192645 5.9961101,2.0870498 6.0349001,2.0548352 6.1508896,1.9628094 6.2538621,1.8825481 6.3824081,1.7823543 6.4443481,1.7284614 6.4514951,1.7105917 6.4901851,1.6138552 6.3966801,1.5064834 6.3059091,1.543412 6.2616241,1.5614278 5.9092651,1.8298461 5.7383771,1.9757408 5.4577926,2.2152889 5.2927926,2.3611342 5.1682381,2.4796921 5.0119211,2.6284831 4.8012551,2.8372022 4.7092783,2.9344094 L 4.6044958,3.0451507 4.5570398,2.9443121 C 4.202651,2.191276 4.4226135,1.2557271 5.0732151,0.74890361 c 0.160251,-0.1248369 0.3083955,-0.2047842 0.503717,-0.27183555 0.194301,-0.0667009 0.2931805,-0.0812563 0.6106455,-0.0898889 0.379725,-0.0103255 0.6045345,-0.0330343 1.01502,-0.1025309 0.355524,-0.0601913 0.9693216,-0.19768934 1.2432066,-0.27849325 L 8.4666667,0 8.4609327,0.32575182 c -0.00619,0.35176329 -0.01547,0.54472305 -0.03631,0.75519908 -0.041115,0.4152843 -0.092082,0.7002628 -0.1784015,0.9975702 -0.030655,0.1055845 -0.094991,0.2916741 -0.1190855,0.3444522 -0.0045,0.00984 -0.02926,0.064821 -0.055044,0.1221764 C 7.8863992,2.9582559 7.5828822,3.3264366 7.2112351,3.5894103 6.9164796,3.7979762 6.6590356,3.9119583 6.3776226,3.958489 6.2852066,3.9737695 5.9678736,3.973923 5.8679526,3.9587257 5.6887736,3.9314914 5.5035486,3.8697267 5.3301156,3.7793801 5.2376696,3.7312229 5.1042521,3.643288 5.0417801,3.5893399 c -0.02204,-0.019032 -0.04342,-0.034359 -0.047512,-0.03406 -0.00932,6.797e-4 -0.1895121,0.2105512 -0.2693087,0.3136622 -0.070283,0.090818 -0.1865658,0.2580585 -0.1819274,0.2616513 0.00178,0.00138 0.055713,0.013594 0.1198541,0.027147 0.611518,0.1292136 1.146166,0.5481056 1.4374975,1.1262669 0.15426,0.3061365 0.2311685,0.6227755 0.2329925,0.9592475 7.5e-4,0.141956 -0.0015,0.169935 -0.01896,0.236074 -0.069212,0.261874 -0.2620825,0.463236 -0.5164745,0.5392155 l -0.068206,0.02037 -1.4685405,0.0013 c -0.8076972,7e-4 -1.4802017,-2.37e-4 -1.4944552,-0.00215 z M 3.7230287,6.6582661 C 3.7998176,6.6415386 3.8596756,6.6068051 3.9205327,6.5436621 3.9833898,6.4784436 4.0076548,6.4335466 4.0294244,6.3421816 4.0588714,6.2185946 4.0170059,6.0741541 3.9238006,5.9777676 3.8002992,5.8500521 3.6346874,5.8188546 3.4825445,5.8946441 c -0.1792625,0.0893 -0.2673913,0.2898615 -0.2107603,0.479643 0.060792,0.203728 0.2559218,0.3265275 0.4512445,0.283979 z m 1.6085109,-0.07033 c 0.16755,-0.04438 0.293016,-0.162629 0.347072,-0.327104 0.03286,-0.099975 0.036825,-0.1863065 0.01274,-0.277436 -0.051356,-0.1943495 -0.192781,-0.3354195 -0.3762615,-0.3753165 -0.075679,-0.016455 -0.114172,-0.01653 -0.1878495,-3.585e-4 -0.09862,0.021645 -0.1663535,0.061155 -0.2444442,0.1425905 -0.078434,0.081792 -0.1144421,0.1483475 -0.1369649,0.253156 -0.017953,0.08354 -0.017445,0.1194405 0.00285,0.2016265 0.050032,0.202605 0.1880187,0.344616 0.3763616,0.387338 0.074393,0.016875 0.1304255,0.015655 0.206494,-0.0045 z m -2.630438,-0.87332 c 0.1103478,-0.03778 0.2245098,-0.1216845 0.2901905,-0.213282 0.1286874,-0.1794665 0.1558137,-0.41252 0.07167,-0.6157493 -0.00968,-0.023373 -0.021459,-0.042498 -0.026181,-0.042498 -0.00472,0 -0.05212,0.045293 -0.1053288,0.1006516 -0.1938188,0.2016492 -0.3470842,0.4516442 -0.4322514,0.7050572 -0.016766,0.049885 -0.030484,0.092919 -0.030484,0.095626 0,0.014245 0.1658418,-0.00702 0.2323847,-0.029806 z M 4.1862689,5.4784216 C 4.2706413,5.4318426 4.3161512,5.3675796 4.3437513,5.2560471 4.3727878,5.1387071 4.2939013,4.9832147 4.1751714,4.923761 4.1134432,4.8928509 4.010605,4.8883042 3.9458947,4.913624 3.7968051,4.9719595 3.7111809,5.1551751 3.7644365,5.3019006 c 0.051162,0.1409575 0.1575044,0.215763 0.2980777,0.2096805 0.058727,-0.00255 0.077316,-0.00752 0.1237547,-0.03316 z M 5.2024091,4.9623973 c 0.028295,-0.00737 0.063282,-0.019447 0.077746,-0.026848 0.046335,-0.023707 0.1342795,-0.087522 0.1342795,-0.097435 0,-0.00527 -0.034015,-0.036172 -0.075586,-0.068662 C 5.2039711,4.6640424 5.0653606,4.5827004 4.9083991,4.5168479 4.8177655,4.4788232 4.6292828,4.4209236 4.6185331,4.4278045 c -0.013637,0.00873 -0.00774,0.1149313 0.010076,0.1815236 0.05459,0.2040277 0.1908059,0.3313311 0.393423,0.3676833 0.04963,0.0089 0.1082835,0.00415 0.180377,-0.014614 z"
       id="path191" /></g></svg>
